<svg xmlns="http://www.w3.org/2000/svg" viewBox="0 0 640 400" width="640" height="400" role="img" aria-label="A strike-by-expiry grid: one API page reached only the nearest expiries; the menu now spans three expiries and both sides of the money">
<style>
  .sp-t { font-family: Inter, -apple-system, BlinkMacSystemFont, 'Segoe UI', Helvetica, Arial, sans-serif; fill: #eaf3fd; font-size: 19px; font-weight: 600; }
  .sp-d { font-family: Inter, -apple-system, BlinkMacSystemFont, 'Segoe UI', Helvetica, Arial, sans-serif; fill: #a6c0dc; font-size: 17px; }
  .sp-m { font-family: ui-monospace, 'SF Mono', SFMono-Regular, Menlo, Consolas, monospace; fill: #a6c0dc; font-size: 16px; }
</style>
<rect x="70" y="70" width="36" height="34" rx="6" fill="#5aa9e6" fill-opacity=".34" stroke="#5aa9e6" stroke-opacity=".34"/><rect x="110" y="70" width="36" height="34" rx="6" fill="#5aa9e6" fill-opacity=".34" stroke="#5aa9e6" stroke-opacity=".34"/><rect x="150" y="70" width="36" height="34" rx="6" fill="#5aa9e6" fill-opacity=".34" stroke="#5aa9e6" stroke-opacity=".34"/><rect x="190" y="70" width="36" height="34" rx="6" fill="#5aa9e6" fill-opacity=".34" stroke="#5aa9e6" stroke-opacity=".34"/><rect x="230" y="70" width="36" height="34" rx="6" fill="#5aa9e6" fill-opacity=".34" stroke="#5aa9e6" stroke-opacity=".34"/><rect x="270" y="70" width="36" height="34" rx="6" fill="#f0b429" fill-opacity=".85" stroke="#f0b429" stroke-opacity=".85"/><rect x="310" y="70" width="36" height="34" rx="6" fill="#f0b429" fill-opacity=".85" stroke="#f0b429" stroke-opacity=".85"/><rect x="350" y="70" width="36" height="34" rx="6" fill="#5aa9e6" fill-opacity=".34" stroke="#5aa9e6" stroke-opacity=".34"/><rect x="390" y="70" width="36" height="34" rx="6" fill="#f0b429" fill-opacity=".85" stroke="#f0b429" stroke-opacity=".85"/><rect x="430" y="70" width="36" height="34" rx="6" fill="#f0b429" fill-opacity=".85" stroke="#f0b429" stroke-opacity=".85"/><rect x="470" y="70" width="36" height="34" rx="6" fill="#5aa9e6" fill-opacity=".34" stroke="#5aa9e6" stroke-opacity=".34"/><rect x="510" y="70" width="36" height="34" rx="6" fill="#5aa9e6" fill-opacity=".34" stroke="#5aa9e6" stroke-opacity=".34"/><rect x="550" y="70" width="36" height="34" rx="6" fill="#5aa9e6" fill-opacity=".34" stroke="#5aa9e6" stroke-opacity=".34"/><rect x="590" y="70" width="36" height="34" rx="6" fill="#5aa9e6" fill-opacity=".34" stroke="#5aa9e6" stroke-opacity=".34"/><rect x="70" y="108" width="36" height="34" rx="6" fill="#5aa9e6" fill-opacity=".34" stroke="#5aa9e6" stroke-opacity=".34"/><rect x="110" y="108" width="36" height="34" rx="6" fill="#5aa9e6" fill-opacity=".34" stroke="#5aa9e6" stroke-opacity=".34"/><rect x="150" y="108" width="36" height="34" rx="6" fill="#5aa9e6" fill-opacity=".34" stroke="#5aa9e6" stroke-opacity=".34"/><rect x="190" y="108" width="36" height="34" rx="6" fill="#5aa9e6" fill-opacity=".34" stroke="#5aa9e6" stroke-opacity=".34"/><rect x="230" y="108" width="36" height="34" rx="6" fill="#5aa9e6" fill-opacity=".34" stroke="#5aa9e6" stroke-opacity=".34"/><rect x="270" y="108" width="36" height="34" rx="6" fill="#5aa9e6" fill-opacity=".34" stroke="#5aa9e6" stroke-opacity=".34"/><rect x="310" y="108" width="36" height="34" rx="6" fill="#5aa9e6" fill-opacity=".34" stroke="#5aa9e6" stroke-opacity=".34"/><rect x="350" y="108" width="36" height="34" rx="6" fill="#5aa9e6" fill-opacity=".34" stroke="#5aa9e6" stroke-opacity=".34"/><rect x="390" y="108" width="36" height="34" rx="6" fill="#5aa9e6" fill-opacity=".34" stroke="#5aa9e6" stroke-opacity=".34"/><rect x="430" y="108" width="36" height="34" rx="6" fill="#5aa9e6" fill-opacity=".34" stroke="#5aa9e6" stroke-opacity=".34"/><rect x="470" y="108" width="36" height="34" rx="6" fill="#5aa9e6" fill-opacity=".34" stroke="#5aa9e6" stroke-opacity=".34"/><rect x="510" y="108" width="36" height="34" rx="6" fill="#5aa9e6" fill-opacity=".34" stroke="#5aa9e6" stroke-opacity=".34"/><rect x="550" y="108" width="36" height="34" rx="6" fill="#5aa9e6" fill-opacity=".34" stroke="#5aa9e6" stroke-opacity=".34"/><rect x="590" y="108" width="36" height="34" rx="6" fill="#5aa9e6" fill-opacity=".34" stroke="#5aa9e6" stroke-opacity=".34"/><rect x="70" y="146" width="36" height="34" rx="6" fill="none" fill-opacity="0" stroke="#31567a" stroke-opacity=".5"/><rect x="110" y="146" width="36" height="34" rx="6" fill="none" fill-opacity="0" stroke="#31567a" stroke-opacity=".5"/><rect x="150" y="146" width="36" height="34" rx="6" fill="none" fill-opacity="0" stroke="#31567a" stroke-opacity=".5"/><rect x="190" y="146" width="36" height="34" rx="6" fill="none" fill-opacity="0" stroke="#31567a" stroke-opacity=".5"/><rect x="230" y="146" width="36" height="34" rx="6" fill="none" fill-opacity="0" stroke="#31567a" stroke-opacity=".5"/><rect x="270" y="146" width="36" height="34" rx="6" fill="#f0b429" fill-opacity=".85" stroke="#f0b429" stroke-opacity=".85"/><rect x="310" y="146" width="36" height="34" rx="6" fill="#f0b429" fill-opacity=".85" stroke="#f0b429" stroke-opacity=".85"/><rect x="350" y="146" width="36" height="34" rx="6" fill="none" fill-opacity="0" stroke="#31567a" stroke-opacity=".5"/><rect x="390" y="146" width="36" height="34" rx="6" fill="#f0b429" fill-opacity=".85" stroke="#f0b429" stroke-opacity=".85"/><rect x="430" y="146" width="36" height="34" rx="6" fill="#f0b429" fill-opacity=".85" stroke="#f0b429" stroke-opacity=".85"/><rect x="470" y="146" width="36" height="34" rx="6" fill="none" fill-opacity="0" stroke="#31567a" stroke-opacity=".5"/><rect x="510" y="146" width="36" height="34" rx="6" fill="none" fill-opacity="0" stroke="#31567a" stroke-opacity=".5"/><rect x="550" y="146" width="36" height="34" rx="6" fill="none" fill-opacity="0" stroke="#31567a" stroke-opacity=".5"/><rect x="590" y="146" width="36" height="34" rx="6" fill="none" fill-opacity="0" stroke="#31567a" stroke-opacity=".5"/><rect x="70" y="184" width="36" height="34" rx="6" fill="none" fill-opacity="0" stroke="#31567a" stroke-opacity=".5"/><rect x="110" y="184" width="36" height="34" rx="6" fill="none" fill-opacity="0" stroke="#31567a" stroke-opacity=".5"/><rect x="150" y="184" width="36" height="34" rx="6" fill="none" fill-opacity="0" stroke="#31567a" stroke-opacity=".5"/><rect x="190" y="184" width="36" height="34" rx="6" fill="none" fill-opacity="0" stroke="#31567a" stroke-opacity=".5"/><rect x="230" y="184" width="36" height="34" rx="6" fill="none" fill-opacity="0" stroke="#31567a" stroke-opacity=".5"/><rect x="270" y="184" width="36" height="34" rx="6" fill="none" fill-opacity="0" stroke="#31567a" stroke-opacity=".5"/><rect x="310" y="184" width="36" height="34" rx="6" fill="none" fill-opacity="0" stroke="#31567a" stroke-opacity=".5"/><rect x="350" y="184" width="36" height="34" rx="6" fill="none" fill-opacity="0" stroke="#31567a" stroke-opacity=".5"/><rect x="390" y="184" width="36" height="34" rx="6" fill="none" fill-opacity="0" stroke="#31567a" stroke-opacity=".5"/><rect x="430" y="184" width="36" height="34" rx="6" fill="none" fill-opacity="0" stroke="#31567a" stroke-opacity=".5"/><rect x="470" y="184" width="36" height="34" rx="6" fill="none" fill-opacity="0" stroke="#31567a" stroke-opacity=".5"/><rect x="510" y="184" width="36" height="34" rx="6" fill="none" fill-opacity="0" stroke="#31567a" stroke-opacity=".5"/><rect x="550" y="184" width="36" height="34" rx="6" fill="none" fill-opacity="0" stroke="#31567a" stroke-opacity=".5"/><rect x="590" y="184" width="36" height="34" rx="6" fill="none" fill-opacity="0" stroke="#31567a" stroke-opacity=".5"/><rect x="70" y="222" width="36" height="34" rx="6" fill="none" fill-opacity="0" stroke="#31567a" stroke-opacity=".5"/><rect x="110" y="222" width="36" height="34" rx="6" fill="none" fill-opacity="0" stroke="#31567a" stroke-opacity=".5"/><rect x="150" y="222" width="36" height="34" rx="6" fill="none" fill-opacity="0" stroke="#31567a" stroke-opacity=".5"/><rect x="190" y="222" width="36" height="34" rx="6" fill="none" fill-opacity="0" stroke="#31567a" stroke-opacity=".5"/><rect x="230" y="222" width="36" height="34" rx="6" fill="none" fill-opacity="0" stroke="#31567a" stroke-opacity=".5"/><rect x="270" y="222" width="36" height="34" rx="6" fill="#f0b429" fill-opacity=".85" stroke="#f0b429" stroke-opacity=".85"/><rect x="310" y="222" width="36" height="34" rx="6" fill="#f0b429" fill-opacity=".85" stroke="#f0b429" stroke-opacity=".85"/><rect x="350" y="222" width="36" height="34" rx="6" fill="none" fill-opacity="0" stroke="#31567a" stroke-opacity=".5"/><rect x="390" y="222" width="36" height="34" rx="6" fill="#f0b429" fill-opacity=".85" stroke="#f0b429" stroke-opacity=".85"/><rect x="430" y="222" width="36" height="34" rx="6" fill="#f0b429" fill-opacity=".85" stroke="#f0b429" stroke-opacity=".85"/><rect x="470" y="222" width="36" height="34" rx="6" fill="none" fill-opacity="0" stroke="#31567a" stroke-opacity=".5"/><rect x="510" y="222" width="36" height="34" rx="6" fill="none" fill-opacity="0" stroke="#31567a" stroke-opacity=".5"/><rect x="550" y="222" width="36" height="34" rx="6" fill="none" fill-opacity="0" stroke="#31567a" stroke-opacity=".5"/><rect x="590" y="222" width="36" height="34" rx="6" fill="none" fill-opacity="0" stroke="#31567a" stroke-opacity=".5"/><rect x="70" y="260" width="36" height="34" rx="6" fill="none" fill-opacity="0" stroke="#31567a" stroke-opacity=".5"/><rect x="110" y="260" width="36" height="34" rx="6" fill="none" fill-opacity="0" stroke="#31567a" stroke-opacity=".5"/><rect x="150" y="260" width="36" height="34" rx="6" fill="none" fill-opacity="0" stroke="#31567a" stroke-opacity=".5"/><rect x="190" y="260" width="36" height="34" rx="6" fill="none" fill-opacity="0" stroke="#31567a" stroke-opacity=".5"/><rect x="230" y="260" width="36" height="34" rx="6" fill="none" fill-opacity="0" stroke="#31567a" stroke-opacity=".5"/><rect x="270" y="260" width="36" height="34" rx="6" fill="none" fill-opacity="0" stroke="#31567a" stroke-opacity=".5"/><rect x="310" y="260" width="36" height="34" rx="6" fill="none" fill-opacity="0" stroke="#31567a" stroke-opacity=".5"/><rect x="350" y="260" width="36" height="34" rx="6" fill="none" fill-opacity="0" stroke="#31567a" stroke-opacity=".5"/><rect x="390" y="260" width="36" height="34" rx="6" fill="none" fill-opacity="0" stroke="#31567a" stroke-opacity=".5"/><rect x="430" y="260" width="36" height="34" rx="6" fill="none" fill-opacity="0" stroke="#31567a" stroke-opacity=".5"/><rect x="470" y="260" width="36" height="34" rx="6" fill="none" fill-opacity="0" stroke="#31567a" stroke-opacity=".5"/><rect x="510" y="260" width="36" height="34" rx="6" fill="none" fill-opacity="0" stroke="#31567a" stroke-opacity=".5"/><rect x="550" y="260" width="36" height="34" rx="6" fill="none" fill-opacity="0" stroke="#31567a" stroke-opacity=".5"/><rect x="590" y="260" width="36" height="34" rx="6" fill="none" fill-opacity="0" stroke="#31567a" stroke-opacity=".5"/><text class="sp-m" x="70" y="48" text-anchor="start" style="fill:#5aa9e6">one API page</text><text class="sp-m" x="320" y="48" text-anchor="start" style="fill:#f0b429">the 12 the model sees</text><text class="sp-m" x="70" y="328" text-anchor="start">expiries → 45 days</text><text class="sp-m" x="626" y="328" text-anchor="end">strikes ±8%</text></svg>